PathFileType  4	(X/Y/Z) C:\Users\antoi\Documents\MyRepositories\mobilecap\ResultsAnalysis
DataRate	CameraRate	NumFrames	NumMarkers	Units	OrigDataRate	OrigDataStartFrame	OrigNumFrames
100.0	100.0	5	51	mm	100.0	68	271
Frame#	Time	r_knee			r_shank_antsup			r_ankle			r_calc			r_5meta			r_toe			L_knee			L_shank_antsup			L_ankle			L_calc			L_5meta			L_toe			r_sh2			r_sh3			r_sh4			L_sh2			L_sh3			r_thigh1			r_thigh2			r_thigh3			r_thigh4			r_thigh5			L_thigh1			L_thigh2			L_thigh3			L_thigh4			r.ASIS			r.PSIS			L.ASIS			L.PSIS			C7			R_Shoulder			L_Shoulder			R_Sternum			L_Sternum			R_humerus			R_elbow_med			R_elbow_lat			R_forearm			R_wrist_radius			R_wrist_ulna			L_humerus			L_elbow_med			L_elbow_lat			L_forearm			L_wrist_radius			L_wrist_ulna			R_HJC			L_HJC			R_HJC_reg			L_HJC_reg			
		X1	Y1	Z1	X2	Y2	Z2	X3	Y3	Z3	X4	Y4	Z4	X5	Y5	Z5	X6	Y6	Z6	X7	Y7	Z7	X8	Y8	Z8	X9	Y9	Z9	X10	Y10	Z10	X11	Y11	Z11	X12	Y12	Z12	X13	Y13	Z13	X14	Y14	Z14	X15	Y15	Z15	X16	Y16	Z16	X17	Y17	Z17	X18	Y18	Z18	X19	Y19	Z19	X20	Y20	Z20	X21	Y21	Z21	X22	Y22	Z22	X23	Y23	Z23	X24	Y24	Z24	X25	Y25	Z25	X26	Y26	Z26	X27	Y27	Z27	X28	Y28	Z28	X29	Y29	Z29	X30	Y30	Z30	X31	Y31	Z31	X32	Y32	Z32	X33	Y33	Z33	X34	Y34	Z34	X35	Y35	Z35	X36	Y36	Z36	X37	Y37	Z37	X38	Y38	Z38	X39	Y39	Z39	X40	Y40	Z40	X41	Y41	Z41	X42	Y42	Z42	X43	Y43	Z43	X44	Y44	Z44	X45	Y45	Z45	X46	Y46	Z46	X47	Y47	Z47	X48	Y48	Z48	X49	Y49	Z49	X50	Y50	Z50	X51	Y51	Z51	

68	0.67000000	-1038.45973	748.76968	-418.44988	-1013.32809	675.66074	-417.11119	-1196.12401	394.66592	-420.93063	-1255.82795	365.14540	-463.46131	-1093.04627	349.26749	-395.01379	-1055.00851	365.91260	-449.26682	-1026.91623	741.05017	-714.31340	-1014.75482	644.17700	-701.31330	-1205.09667	405.63022	-701.69849	-1266.13009	369.11704	-655.57763	-1112.68354	352.68953	-736.74363	-1059.26242	365.13329	-685.57644	-1071.21248	578.60321	-405.88144	-1072.76474	715.86042	-387.75271	-1138.58098	617.78855	-380.00394	-1076.65910	694.52653	-749.03305	-1137.42876	585.75772	-751.50739	-1049.45066	1002.05239	-377.27831	-1020.09533	893.14353	-390.01176	-1074.12327	855.54773	-389.19681	-1157.67856	973.18409	-388.72569	-1123.99289	863.08702	-410.03056	-1054.49915	1019.07386	-760.14366	-1014.03506	887.40913	-739.34893	-1165.58682	988.30577	-756.55772	-1124.45017	859.83514	-720.76785	-1023.01655	1165.16111	-463.74011	-1206.39011	1270.07654	-533.63433	-1027.34721	1164.01640	-679.07391	-1206.31697	1267.17562	-617.09568	-921.05551	1624.98761	-564.52519	-879.59552	1566.62280	-418.04570	-879.37647	1575.13468	-709.24611	-833.91750	1518.10743	-542.28673	-835.93330	1518.52000	-580.56357	-933.95183	1466.38736	-352.07852	-1138.54330	1375.80690	-357.86877	-1108.23564	1360.98996	-301.60713	-1096.82147	1267.56546	-286.68092	-1131.35992	1127.18032	-291.40805	-1164.14060	1137.74180	-273.96249	-936.03201	1496.11185	-787.50772	-1126.93473	1375.38313	-795.48218	-1089.65718	1374.61097	-850.36067	-1094.04589	1268.75131	-873.68499	-1130.39309	1145.56099	-875.35509	-1163.24991	1159.26458	-894.54364	-1132.07187	1115.14981	-465.76774	-1133.23164	1114.51922	-673.27049	-1115.20993	1132.46099	-491.94551	-1115.08445	1127.52227	-634.01162	
69	0.68000000	-1031.08804	745.97471	-418.56509	-1006.57635	672.29232	-417.36642	-1195.33385	395.26024	-421.33665	-1255.45405	366.02582	-463.80768	-1092.86209	349.19770	-395.09457	-1054.54658	365.42018	-449.31938	-1020.32343	738.50734	-714.60502	-1009.57443	641.84689	-701.51141	-1204.16798	406.43751	-701.99195	-1265.54519	370.57254	-655.88576	-1112.41270	352.59454	-736.96351	-1059.25243	364.62351	-685.73952	-1066.28431	576.49887	-406.16065	-1065.08312	713.79373	-387.76289	-1133.47789	618.09273	-379.98376	-1069.98385	693.10998	-749.86621	-1132.72286	585.25551	-752.33633	-1046.09104	998.56189	-376.82726	-1014.68270	890.54523	-389.68019	-1068.04446	851.84259	-389.07205	-1153.31504	968.44584	-389.12035	-1118.02908	858.44329	-410.32665	-1052.76870	1015.89732	-760.43791	-1009.86855	884.97746	-740.22303	-1164.43935	982.90359	-754.93100	-1119.73246	855.82880	-720.80140	-1021.38343	1159.96628	-464.37736	-1204.33011	1266.07547	-533.48611	-1026.41930	1159.37473	-679.56902	-1204.48680	1263.34958	-617.04121	-916.49795	1618.57249	-564.98716	-875.49795	1559.10739	-418.38738	-875.25767	1567.94596	-709.84142	-829.93702	1511.14055	-542.91200	-832.04305	1511.61132	-580.91745	-928.19731	1457.06909	-353.56922	-1131.01716	1362.62401	-357.67232	-1099.76878	1347.93442	-301.70529	-1086.22390	1254.78326	-287.66740	-1116.99957	1113.70970	-292.85675	-1150.36738	1122.95678	-275.45408	-930.65338	1487.28757	-787.67803	-1119.64516	1363.40565	-795.91206	-1082.02996	1363.00052	-850.73025	-1084.31344	1257.02222	-873.60775	-1117.81907	1133.20546	-875.10490	-1151.23195	1146.04780	-893.91490	-1130.74551	1110.59463	-466.17579	-1132.48004	1110.42347	-673.67582	-1113.86911	1127.90974	-492.39412	-1114.13598	1123.27742	-634.38254	
70	0.69000000	-1023.42069	743.02618	-418.78257	-999.55878	668.86184	-417.56172	-1194.37709	396.12395	-421.65433	-1254.93845	367.37528	-464.09935	-1092.65661	349.05529	-395.14933	-1054.03961	364.77945	-449.26116	-1013.56186	735.93522	-715.11764	-1004.70384	639.69000	-701.87203	-1203.18616	407.38652	-702.28277	-1265.05748	372.21071	-655.95987	-1112.09351	352.44867	-737.10890	-1059.12264	364.07546	-685.82006	-1061.25293	574.40761	-406.31853	-1057.07521	711.60286	-387.89125	-1127.70015	618.14291	-380.17344	-1063.52560	690.84421	-749.23186	-1127.98532	584.61103	-752.71077	-1042.68475	994.90814	-376.43439	-1009.06485	887.66768	-389.28316	-1061.89576	847.79969	-388.92623	-1149.17828	963.10732	-389.48165	-1111.88201	853.56546	-410.69739	-1050.81187	1012.61142	-760.85624	-1005.47586	882.49299	-741.11056	-1161.42268	978.07871	-755.24109	-1114.71583	851.56480	-720.57824	-1019.54437	1154.51965	-464.78433	-1202.24685	1261.72660	-533.43533	-1025.34891	1154.45489	-680.05062	-1202.68040	1259.09234	-616.87424	-912.12817	1611.92685	-565.45750	-871.51625	1551.30878	-418.74956	-871.20598	1560.42061	-710.38517	-826.21377	1504.00200	-543.32488	-828.28045	1504.35550	-581.44526	-922.36350	1447.48682	-355.03081	-1123.09521	1348.65942	-357.17456	-1090.74840	1334.28644	-301.66479	-1074.58934	1241.50344	-288.47395	-1101.46041	1099.79506	-294.26641	-1135.23374	1107.74422	-277.03283	-925.29667	1478.16666	-787.84395	-1112.00977	1350.76762	-796.54055	-1073.95351	1350.85369	-851.31250	-1073.87337	1244.71332	-873.52475	-1103.99979	1120.16643	-874.84259	-1137.93818	1132.10126	-893.52601	-1129.24408	1105.74791	-466.47222	-1131.54455	1105.94223	-673.96698	-1112.34748	1123.09948	-492.55564	-1113.08687	1118.61510	-634.60983	
71	0.70000000	-1015.35200	739.93738	-419.03141	-992.13308	665.55326	-417.81313	-1193.11622	397.44799	-421.56790	-1254.18824	369.34375	-464.25702	-1092.39352	348.79515	-395.20050	-1053.46033	364.00849	-449.06979	-1006.70325	733.48007	-716.17410	-999.44644	637.16673	-702.36746	-1202.11673	408.43102	-702.47133	-1264.66442	374.06846	-655.52971	-1111.77097	352.31179	-737.20215	-1058.73801	363.61715	-686.01999	-1055.99906	572.40106	-406.45826	-1048.97944	709.44223	-388.17577	-1121.17347	617.36717	-380.54442	-1057.19265	688.14964	-748.04514	-1123.22220	583.85950	-752.88447	-1039.44237	990.81254	-376.22455	-1003.74712	884.22360	-389.29673	-1055.85890	843.30458	-389.05967	-1145.69193	957.11885	-389.47284	-1105.59084	848.50416	-411.13784	-1048.56723	1009.21372	-761.76455	-1000.90340	880.02766	-742.24555	-1156.87760	973.75884	-757.04553	-1109.49864	847.13671	-720.55235	-1017.55205	1148.89734	-464.98597	-1200.16372	1257.03013	-533.37933	-1024.75666	1149.37956	-680.16525	-1200.88211	1254.47984	-616.72690	-907.93622	1605.07665	-565.92103	-867.57212	1543.38617	-419.00502	-867.27684	1552.67059	-710.97304	-822.58114	1496.67782	-543.48927	-824.67689	1496.90521	-581.92021	-916.26820	1437.68213	-356.32374	-1114.80335	1334.08372	-356.28607	-1081.16610	1320.11077	-301.52766	-1061.75709	1227.68823	-289.14158	-1084.75300	1085.44638	-295.97155	-1118.63074	1092.34083	-278.52514	-919.91197	1468.81843	-787.88353	-1103.99104	1337.47874	-797.50789	-1065.50094	1338.13081	-851.98386	-1062.65091	1231.96011	-873.46502	-1088.90965	1106.66806	-874.54739	-1123.41625	1117.45820	-893.00891	-1127.72062	1100.75744	-466.50427	-1130.72576	1101.08859	-673.98922	-1110.87941	1118.04544	-492.46092	-1112.10315	1113.69960	-634.49071	
72	0.71000000	-1006.87315	736.79709	-419.27929	-984.28341	662.45427	-418.26276	-1191.56680	399.25381	-421.15954	-1253.19871	371.82075	-464.32634	-1092.03331	348.54087	-395.26287	-1052.74962	363.29620	-448.91308	-999.77217	730.91350	-717.40966	-993.55989	634.17511	-703.06356	-1200.91214	409.57779	-702.71916	-1264.09171	376.00006	-655.16262	-1111.47890	352.21344	-737.25861	-1058.15286	363.26061	-686.33147	-1050.21347	570.48826	-406.85034	-1040.38689	707.47697	-388.48494	-1114.46380	616.75374	-380.81896	-1050.68039	685.68737	-747.54847	-1118.46409	583.15838	-753.17379	-1036.31005	986.49954	-376.36352	-998.90945	880.36983	-389.55675	-1049.83003	838.45870	-389.67863	-1142.23073	950.36934	-389.71544	-1099.21494	843.19549	-411.82289	-1046.12943	1005.65232	-762.95158	-996.34184	877.32582	-743.38541	-1152.28871	969.15906	-758.62787	-1104.20179	842.62398	-720.96076	-1015.63932	1142.93386	-465.30241	-1198.10065	1251.91199	-533.12699	-1024.16739	1143.79138	-680.21632	-1199.01323	1249.54186	-616.57814	-903.90072	1598.02462	-566.32490	-863.67836	1535.26775	-419.34879	-863.61384	1544.75299	-711.53091	-818.71098	1489.24183	-543.59095	-821.38216	1489.99276	-581.89617	-909.85516	1427.63683	-357.71522	-1105.93108	1318.98282	-355.48779	-1070.92039	1305.43131	-301.34663	-1048.27460	1213.46768	-290.04859	-1066.95699	1070.71096	-298.13226	-1100.72706	1076.56873	-280.08875	-914.40772	1459.27555	-787.80023	-1095.57288	1323.61673	-798.84219	-1056.60381	1324.88117	-852.78235	-1050.48476	1218.76174	-873.41342	-1072.58615	1092.86802	-874.08951	-1107.55375	1102.29981	-892.45731	-1126.21586	1095.39467	-466.47502	-1129.97557	1095.82651	-673.94788	-1109.48090	1112.44067	-492.58714	-1111.03138	1108.41066	-634.47875	
